<?xml version="1.0" standalone="no"?><!DOCTYPE svg PUBLIC "-//W3C//DTD SVG 1.1//EN" "http://www.w3.org/Graphics/SVG/1.1/DTD/svg11.dtd"><svg t="1692084213695" class="icon" viewBox="0 0 1024 1024" version="1.1" xmlns="http://www.w3.org/2000/svg" p-id="17985" xmlns:xlink="http://www.w3.org/1999/xlink" width="200" height="200"><path d="M1023.968776 512.097183c0-282.258233-228.984548-511.073949-511.452546-511.073949-282.473113 0-511.462778 228.815714-511.462778 511.073949 0 260.737564 195.390735 475.854215 447.837029 507.155983 14.231147 2.999101 31.56474 4.746785 52.20952 4.746785 5.795601 0 11.384509-0.304924 16.782069-0.857471C797.877934 1020.265145 1023.968776 792.574989 1023.968776 512.097183zM950.836154 519.328382c-1.471411-25.500028-4.8399-50.460812-9.969375-74.718635 0.455339-8.661681 0.579151-16.868021 0.346877-24.497259 6.343032 29.660501 9.687986 60.432234 9.687986 91.984695C950.902664 514.51304 950.875036 516.921734 950.836154 519.328382zM74.120587 512.097183c0-30.977404 3.225236-61.200683 9.345202-90.360822 18.931885 20.247765 63.554123 19.769914 74.436222-10.483039 19.47113 11.604504 45.637284 13.717484 45.637284 36.912164 0 76.550224 2.725897 158.618754 72.279245 159.886542 1.958471 0.025581 38.788777 13.957944 56.316784 59.416162 6.060619 15.711766 30.032958 0 56.3219 0 13.124008 0 0 22.110052 0 69.921712 0 47.626452 102.680566 120.959629 102.680566 120.959629-0.475804 31.525857 0.818588 57.0177 3.442161 77.383137-23.177286-0.426689-42.709812 2.645062-58.05526 7.868674C230.627384 907.644879 74.120587 728.142931 74.120587 512.097183zM620.440873 936.78353c-2.272604-11.126653-12.215375-17.220014-30.3563-12.451742 14.474677-61.640674 21.51146-96.169725 51.7286-122.387041 43.719745-37.898563 5.206218-80.043547-28.063231-75.076767-26.222432 3.958895-9.651149-32.467233-33.055593-34.481982-23.404444-1.958471-53.969484-48.51155-87.653343-64.530289-17.855442-8.479545-35.402893-31.203538-62.940182-32.221657-24.407214-0.946492-60.076148 20.637617-60.076148 3.999824 0-53.590887-5.426213-91.832233-6.541539-107.104008-0.900446-12.269607-8.020113-4.132845 24.974086-3.339838 17.956743 0.48092 9.185577-36.067996 26.959161-37.495408 17.456381-1.381367 59.052914 16.341055 69.650555 9.277668 9.845564-6.577352 72.371336 164.126825 72.371336 28.216716 0-16.126176-8.351641-44.163827 0-59.436627 33.030012-60.352422 63.952161-109.539307 61.175102-116.734693-1.575781-4.050986-33.792322-7.39594-59.569647 1.253462-8.699541 2.904963 2.766826 16.530354-9.727892 19.440433-46.814004 10.807404-88.175193-12.622623-73.691307-34.6457 14.831785-22.570508 68.571042-9.845564 73.282014-55.124716 2.710549-25.935926 4.956549-55.974001 6.45968-78.298932 63.004646 9.852726 56.069161-81.767697-37.61308-91.574378 189.525555 2.217349 350.128359 124.615646 409.062577 294.48691-2.980683-2.718734-6.448425-4.371258-10.453365-4.774413-28.324156-70.749509-97.074264-19.547873-73.752701 42.855111-124.959453 96.057169-92.97314 163.052429-51.917898 201.416562 21.603551 20.16693 42.200241 50.496626 55.610752 72.279245-14.596442 42.561443 53.781209 25.518447 87.503951-46.709634C890.911444 782.384595 771.249277 898.633251 620.440873 936.78353z" fill="#272636" p-id="17986"></path></svg>